Coordinates
version=1
nRows=16
nColumns=36
inDegrees=yes

Units are S.I. units (second, meters, Newtons, ...)
If the header above contains a line with 'inDegrees', this indicates whether rotational values are in degrees (yes) or radians (no).

endheader
time	pelvis_tilt	pelvis_list	pelvis_rotation	pelvis_tx	pelvis_ty	pelvis_tz	hip_flexion_r	hip_adduction_r	hip_rotation_r	knee_angle_r	knee_angle_r_beta	ankle_angle_r	subtalar_angle_r	mtp_angle_r	hip_flexion_l	hip_adduction_l	hip_rotation_l	knee_angle_l	knee_angle_l_beta	ankle_angle_l	subtalar_angle_l	mtp_angle_l	lumbar_extension	lumbar_bending	lumbar_rotation	arm_flex_r	arm_add_r	arm_rot_r	elbow_flex_r	pro_sup_r	arm_flex_l	arm_add_l	arm_rot_l	elbow_flex_l	pro_sup_l
      0.00000000	      5.71891239	     -4.19957166	     -2.28409632	     -0.88300950	      1.26286357	     -0.08888960	     -7.79100311	      4.84378985	      0.77040784	      7.26155924	      0.12673812	      6.73696215	    -16.69225774	     -6.07495373	    -12.46685472	     -3.99529934	      2.49341875	      0.58472386	      0.01020536	     11.05432374	     -7.28205735	     -6.07495373	    -10.09773467	      3.67302438	     -2.89567837	      7.77710049	     -6.88496246	     20.54426366	     19.42866204	     73.42748934	      4.71594378	     -6.78409538	     21.24271624	     21.36360085	     64.70036884
      0.00416670	      3.91868546	     -3.73994686	     -2.30161896	     -0.88136798	      1.26121921	     -0.08938098	     -5.25938474	      4.78063599	      1.78392650	      8.36607395	      0.14601554	      9.23725446	    -15.91341299	     -7.27300723	    -10.26421200	     -3.16758274	      3.96596896	      0.56480829	      0.00985776	     10.29557458	     -8.21621777	     -7.27300723	     -7.53830019	      3.26234018	     -3.32005798	      6.88566435	     -6.13275621	     17.31109146	     19.36556327	     68.76922162	      4.27614378	     -5.97686022	     17.15923272	     20.63456718	     62.62070239
      0.00833330	      2.63002404	     -2.90766966	     -2.56146047	     -0.88145945	      1.26090351	     -0.08847549	     -3.96670895	      3.99820961	      1.27745874	      7.93271170	      0.13845194	      9.63988613	    -15.53373746	     -7.28372915	     -8.89938992	     -2.29357435	      3.84633384	      0.51441796	      0.00897829	     10.25059892	     -8.16059592	     -7.28372915	     -5.73557046	      2.05953575	     -3.27653649	      6.41533120	     -5.51025477	     16.26836828	     19.10117649	     70.26845665	      4.17953146	     -6.40422447	     16.99960163	     20.29831121	     63.34876707
      0.01250000	      2.98569836	     -2.69270606	     -2.36760849	     -0.88053376	      1.25639719	     -0.08953727	     -4.68457224	      3.68735680	      1.00322221	      7.35577389	      0.12838247	     10.23897105	    -14.89798385	     -7.33844897	     -9.42899743	     -1.99154759	      4.52050759	      0.39482553	      0.00689101	     10.10479522	     -9.01923300	     -7.33844897	     -6.07061316	      1.70353556	     -3.42847655	      6.20285386	     -5.29037444	     15.33828463	     19.40401943	     69.21146833	      4.22077962	     -6.69584490	     16.95401233	     20.46177549	     63.01355581
      0.01666670	      3.16340387	     -2.56128100	     -2.33692488	     -0.87710873	      1.26071138	     -0.08763816	     -5.32380748	      3.67406037	      1.38749996	      6.77590235	      0.11826181	      9.66287713	    -15.88227613	     -7.38551566	     -9.83791940	     -1.85656850	      4.43226240	      0.32475847	      0.00566810	     10.62653953	     -8.30484665	     -7.38551566	     -6.11461504	      1.44299698	     -2.85868664	      5.67191977	     -5.28594984	     14.58552771	     19.53455316	     73.60508375	      4.63860364	     -7.06925514	     20.30833104	     19.98122277	     65.13501330
      0.02083330	      3.39904606	     -2.51429995	     -2.27594370	     -0.87969294	      1.26010163	     -0.08914186	     -5.81504835	      3.62451943	      1.39324338	      6.36485549	      0.11108768	      9.67834974	    -16.00153189	     -7.42638888	    -10.10724918	     -1.75695600	      4.70803804	      0.30007823	      0.00523735	     10.59766053	     -8.76689986	     -7.42638888	     -6.44899351	      1.37422904	     -2.76829704	      5.63982579	     -5.31893930	     14.21148092	     19.77809680	     73.59472129	      4.83985480	     -7.09512467	     20.58510710	     19.97397445	     64.71613026
      0.02500000	      3.42659012	     -2.48043562	     -2.10237541	     -0.88009598	      1.26410884	     -0.08954243	     -6.08146224	      3.63068719	      1.44228617	      5.89091123	      0.10281580	      9.41800589	    -16.04084004	     -7.45792354	    -10.12194643	     -1.72771932	      5.08591348	      0.28046204	      0.00489499	     10.43130559	     -9.08752904	     -7.45792354	     -6.51662259	      1.34036369	     -2.70824724	      5.65896180	     -5.26135876	     12.87495769	     19.53851532	     78.85539604	      5.25862756	     -7.04290513	     21.69079186	     19.51597294	     65.33964039
      0.02916670	      3.41516602	     -2.47475592	     -2.14391959	     -0.88040090	      1.25977214	     -0.08885910	     -6.14451265	      3.60959294	      1.41945115	      5.70596004	      0.09958779	      9.42110006	    -16.10057782	     -7.45788967	    -10.08095646	     -1.69165591	      5.12074264	      0.27880147	      0.00486600	     10.47766742	     -9.11662009	     -7.45788967	     -6.48851847	      1.34862195	     -2.69323628	      5.81717829	     -5.27999109	     12.86847058	     19.51784421	     78.87926129	      5.40132692	     -7.01231260	     21.68349033	     19.49881515	     65.34314452
      0.03333330	      3.60783495	     -2.48631502	     -2.00573777	     -0.88068871	      1.26234901	     -0.08892546	     -6.60721819	      3.69455997	      1.61614007	      5.18406283	      0.09047897	      9.01512053	    -16.15963806	     -7.46402549	    -10.27417108	     -1.75303076	      5.12172386	      0.26738509	      0.00466675	     10.37713181	     -9.19920137	     -7.46402549	     -6.85462200	      1.34157058	     -2.62539057	      5.96758338	     -5.26948495	     12.96873141	     19.27362191	     77.75679657	      5.73588122	     -6.84605594	     21.48039448	     19.15434493	     64.86403001
      0.03750000	      3.54897609	     -2.46994818	     -1.89005476	     -0.87986891	      1.26008093	     -0.08902741	     -6.72110765	      3.73175654	      1.88184276	      4.80242883	      0.08381820	      8.61664416	    -16.58688440	     -7.47600832	    -10.18743099	     -1.78025948	      5.65938423	      0.26568415	      0.00463706	      9.98723223	     -9.98653823	     -7.47600832	     -6.81174553	      1.35377085	     -2.62876998	      5.92008175	     -5.43756361	     13.91108029	     19.55701496	     75.96139076	      5.75217497	     -6.91920112	     21.82099465	     19.43816061	     64.07334094
      0.04166670	      3.53226392	     -2.47477345	     -1.77727845	     -0.87874132	      1.26062250	     -0.08817330	     -6.84790652	      3.80202768	      2.13615319	      4.46823545	      0.07798542	      8.46321028	    -16.67012166	     -7.47997149	    -10.12302894	     -1.85876998	      5.76500912	      0.26210400	      0.00457458	      9.92338451	    -10.06621589	     -7.47997149	     -6.73703064	      1.35730151	     -2.71699604	      5.99278203	     -5.48894507	     14.42004709	     19.42900852	     76.23259456	      5.76823651	     -6.96038276	     22.14931906	     19.31796621	     63.94982355
      0.04583330	      3.53081549	     -2.49915998	     -1.72729300	     -0.87919272	      1.25523420	     -0.08943164	     -6.92005347	      3.82327186	      2.04782687	      4.30972426	      0.07521888	      8.20651471	    -17.04750067	     -7.48329119	    -10.10280636	     -1.90602662	      5.90109981	      0.26049515	      0.00454650	      9.99798611	    -10.07901570	     -7.48329119	     -6.70283784	      1.41329879	     -2.74784333	      6.00012283	     -5.60450458	     14.59989850	     19.52618263	     76.08420688	      5.74557255	     -6.99154974	     22.22254363	     19.41045862	     63.73787897
      0.05000000	      3.53851587	     -2.53061457	     -1.77527797	     -0.87814690	      1.25486067	     -0.08977558	     -6.95775114	      3.82556047	      2.20478385	      4.29181103	      0.07490623	      8.05845113	    -17.52753615	     -7.48748168	    -10.13327008	     -1.92622027	      5.86153090	      0.25784858	      0.00450031	     10.03498758	    -10.11727931	     -7.48748168	     -6.65709703	      1.50829658	     -2.64315391	      5.98727225	     -5.80926096	     14.80139835	     19.63973023	     75.83565541	      5.71225025	     -6.96017397	     22.22965711	     19.52293784	     63.49114156
      0.05416670	      3.58603665	     -2.51497204	     -1.83247580	     -0.87572599	      1.26153890	     -0.08825793	     -7.08249092	      3.79968814	      1.86267505	      4.23107353	      0.07384616	      8.30249442	    -16.89337260	     -7.49068203	    -10.29999003	     -1.94538515	      5.42751875	      0.25120092	      0.00438428	     10.27381621	     -9.14366060	     -7.49068203	     -6.53835288	      1.46573723	     -2.52512973	      5.98297158	     -5.73335758	     14.77178143	     19.20290322	     74.63827060	      5.70681091	     -6.86888004	     22.03661250	     19.01016834	     63.04188854
      0.05833330	      3.44549044	     -2.56308961	     -1.79075504	     -0.87741630	      1.25359326	     -0.09045204	     -7.04772799	      3.84098910	      2.10256920	      4.04131682	      0.07053428	      7.87842039	    -17.69592863	     -7.49234742	    -10.18222915	     -1.99167183	      6.02935147	      0.25267618	      0.00441003	      9.93646464	    -10.30076851	     -7.49234742	     -6.29278100	      1.57895927	     -2.59260651	      5.83673203	     -5.98305196	     15.15666301	     19.58033648	     75.14669094	      5.45909622	     -6.98496208	     22.26474937	     19.50168322	     63.17905840
      0.06250000	      3.44816487	     -2.58611972	     -1.82290863	     -0.87854298	      1.25992827	     -0.08967986	     -7.07541724	      3.84926756	      1.79775724	      3.97028895	      0.06929461	      8.07888025	    -17.28550055	     -7.49379440	    -10.18584613	     -2.00998641	      5.82069896	      0.25094220	      0.00437977	     10.28201363	     -9.50296944	     -7.49379440	     -6.28896496	      1.60586782	     -2.57831563	      5.91340437	     -5.96822398	     14.98099822	     19.49429893	     74.12600778	      5.45937511	     -6.91598115	     22.04011030	     19.32099617	     62.86534785
